<svg width="72" height="72" viewBox="0 0 72 72" fill="none" xmlns="http://www.w3.org/2000/svg">
<path d="M34.6136 0.454544H44.4545L39.4545 30.6818C38.8939 34.0758 37.5985 37.0455 35.5682 39.5909C33.5379 42.1364 30.9545 44.1212 27.8182 45.5455C24.6818 46.9545 21.1818 47.6591 17.3182 47.6591C13.4545 47.6591 10.197 46.9545 7.54545 45.5455C4.89394 44.1212 2.97727 42.1364 1.79545 39.5909C0.613636 37.0455 0.30303 34.0758 0.863636 30.6818L5.86364 0.454544H15.7045L10.8182 29.8409C10.5455 31.6136 10.6818 33.1894 11.2273 34.5682C11.7879 35.947 12.7121 37.0303 14 37.8182C15.2879 38.6061 16.8788 39 18.7727 39C20.6818 39 22.4091 38.6061 23.9545 37.8182C25.5152 37.0303 26.7955 35.947 27.7955 34.5682C28.8106 33.1894 29.4545 31.6136 29.7273 29.8409L34.6136 0.454544Z" fill="#FF6565"/>
<path d="M59.984 30.744C56.8693 30.744 54.0533 31.6827 51.536 33.56C49.0187 35.3947 47.0133 37.9333 45.52 41.176C44.0267 44.376 43.28 48.0667 43.28 52.248C43.28 56.856 44.4107 60.376 46.672 62.808C48.9333 65.24 51.8133 66.456 55.312 66.456C57.3173 66.456 59.088 66.1787 60.624 65.624C62.2027 65.0693 63.7387 64.408 65.232 63.64L66.256 69.144C64.6773 69.8693 62.928 70.488 61.008 71C59.088 71.512 56.912 71.768 54.48 71.768C50.9813 71.768 47.9093 71.0213 45.264 69.528C42.6613 68.0347 40.6347 65.88 39.184 63.064C37.7333 60.2053 37.008 56.7493 37.008 52.696C37.008 48.856 37.5627 45.2933 38.672 42.008C39.824 38.68 41.4453 35.7787 43.536 33.304C45.6267 30.8293 48.1013 28.9093 50.96 27.544C53.8613 26.136 57.04 25.432 60.496 25.432C63.0133 25.432 65.232 25.7733 67.152 26.456C69.072 27.1387 70.672 27.8427 71.952 28.568L69.2 33.56C67.92 32.7493 66.5547 32.088 65.104 31.576C63.696 31.0213 61.9893 30.744 59.984 30.744Z" fill="#777777"/>
</svg>
